<?xml version="1.0" standalone="no"?><!DOCTYPE svg PUBLIC "-//W3C//DTD SVG 1.1//EN" "http://www.w3.org/Graphics/SVG/1.1/DTD/svg11.dtd"><svg t="1604371635516" class="icon" viewBox="0 0 1024 1024" version="1.1" xmlns="http://www.w3.org/2000/svg" p-id="2596" xmlns:xlink="http://www.w3.org/1999/xlink" width="200" height="200"><defs><style type="text/css"></style></defs><path d="M176.657378 267.593815l51.670834-51.670834 620.368388 620.368388-51.670834 51.670834-620.368388-620.368388Z" p-id="2597"></path><path d="M598.000188 466.621487c-11.164271-11.163247-24.549116-20.10592-39.141462-26.15366-14.594393-6.042623-30.379914-9.184173-46.171576-9.184173-5.743818 0-11.487635 0.421602-17.173125 1.240247l136.588865 136.585795c0.818645-5.683443 1.237177-11.425214 1.237177-17.168008 0-15.791661-3.13541-31.582299-9.184173-46.173622C618.113271 491.177765 609.168552 477.791897 598.000188 466.621487z" p-id="2598"></path><path d="M420.604942 357.614817c27.9117-13.248745 59.128679-20.672832 92.081185-20.672832 118.735242 0 214.995609 96.257298 214.995609 215.000726 0 32.951483-7.423063 64.165392-20.670785 92.077092l87.202061 87.203084c102.531188-83.563184 166.8204-182.081988 166.8204-182.081988S788.671809 257.700223 503.622704 257.700223c-56.196906 0-107.304911 11.4334-153.153122 29.782304L420.604942 357.614817z" p-id="2599"></path><path d="M603.017458 747.084133c-27.467585 12.737092-58.06444 19.85828-90.330308 19.85828-118.744451 0-215.001749-96.258321-215.001749-215.000726 0-32.266891 7.121188-62.866816 19.856233-90.331331l-96.515171-96.516194C118.179075 449.079972 64.333726 551.702234 64.333726 551.702234S264.546653 846.182129 515.882935 846.182129c53.556777 0 104.497982-13.493316 151.512762-34.721803L603.017458 747.084133z" p-id="2600"></path><path d="M427.367973 637.260865c11.167341 11.169387 24.549116 20.107967 39.144532 26.154683 14.591323 6.0416 30.377868 9.185196 46.174646 9.185196 4.983501 0 9.965979-0.314155 14.912641-0.933255L392.961348 537.029046c-0.618077 4.945639-0.933255 9.930163-0.933255 14.912641 0 15.796778 3.139503 31.582299 9.184173 46.172599C407.254889 612.706633 416.198585 626.091478 427.367973 637.260865z" p-id="2601"></path></svg>